<svg xmlns="http://www.w3.org/2000/svg" width="76.064" height="75.333" viewBox="0 0 76.064 75.333">
  <g id="icons8-construction-85" transform="translate(-1.242 83.963)">
    <path id="Path_1496" data-name="Path 1496" d="M57.32-82.986c-2.022,1.1-2.206,5.7-.276,7.261,1.011.827,1.379,3.033,1.379,7.9,0,5.331.276,6.8,1.287,6.8A4.862,4.862,0,0,1,62.559-59c1.379,2.022,1.287,2.114-1.1,2.574-2.574.46-2.574.551-2.849,8.732-.184,6.066-.643,8.456-1.562,9.007-1.746.919-1.746,5.607,0,7.077,1.838,1.562,1.746,2.482-.46,3.217a4.015,4.015,0,0,0-2.39,2.849c-.46,1.838-1.1,2.206-4.136,2.206-3.309,0-3.585-.184-3.585-2.574,0-3.4-1.93-5.974-4.228-5.515-1.562.276-1.746,1.195-1.746,11.305s.184,11.029,1.746,11.305c2.3.46,4.228-2.114,4.228-5.515,0-2.39.276-2.574,3.676-2.574,2.941,0,3.676.368,3.676,1.654,0,.919,1.287,2.757,2.849,4.136,2.665,2.3,3.4,2.482,11.948,2.482h9.1V-19.567c0-8.548.276-11.121,1.379-12.04a5.9,5.9,0,0,0,1.379-3.86c0-1.471-.551-2.849-1.379-3.125-1.195-.46-1.379-3.4-1.379-18.29,0-14.614.276-17.923,1.379-18.842,2.022-1.654,1.746-6.158-.368-7.353C76.437-84.273,59.342-84.273,57.32-82.986ZM72.209-79.4v2.757H57.5v-5.515H72.209Zm.919,22.518V-38.96H60.261V-54.218l4.6-1.287c4.687-1.287,6.158-2.757,2.757-2.757a5.265,5.265,0,0,1-3.4-1.838,5.286,5.286,0,0,0-2.757-1.838c-.827,0-1.195-1.838-1.195-6.434v-6.434H73.129ZM72.026-35.1l.276,2.574H57.5v-5.607l7.169.276C71.658-37.582,71.75-37.582,72.026-35.1Zm1.1,14.522v10.11H60.261V-30.688H73.129Zm-28.676.46c.276,9.007-.735,12.592-2.574,9.651-1.011-1.562-1.287-17.739-.276-18.75C43.441-30.964,44.176-28.482,44.452-20.118Zm13.971-2.3c0,3.676-.276,4.412-1.379,4.044-1.379-.551-2.022-6.8-.735-8C57.779-27.931,58.423-26.736,58.423-22.416Zm-4.6,2.3c0,.827-.827,1.379-2.3,1.379s-2.3-.551-2.3-1.379.827-1.379,2.3-1.379S53.827-20.946,53.827-20.118Z" transform="translate(-3.175 0)" fill="#000103"/>
    <path id="Path_1497" data-name="Path 1497" d="M61.489-31.081c-.276.46-.092.919.368.919a1.007,1.007,0,0,0,1.011-.919c0-.551-.184-.919-.368-.919C62.224-32,61.764-31.632,61.489-31.081Z" transform="translate(-4.863 -4.203)" fill="#000103"/>
    <path id="Path_1498" data-name="Path 1498" d="M69.489-31.081c-.276.46-.092.919.368.919a1.007,1.007,0,0,0,1.011-.919c0-.551-.184-.919-.368-.919C70.224-32,69.764-31.632,69.489-31.081Z" transform="translate(-5.51 -4.203)" fill="#000103"/>
    <path id="Path_1499" data-name="Path 1499" d="M10.762-79.063a14.043,14.043,0,0,0-3.768,5.055c-.735,1.746-1.746,3.125-2.3,3.125S3.042-69.5,2.214-67.758C.376-63.805,1.111-60.589,4.7-57.372c1.654,1.379,2.757,3.309,2.757,4.6,0,3.493,1.654,5.79,5.239,7.261A7.629,7.629,0,0,0,21.516-46.8C24-49.008,23.354-50.111,20.689-48a8.917,8.917,0,0,1-4.5,1.93c-4.779,0-9.559-7.353-6.893-10.57.919-1.195.735-1.379-1.1-1.379-5.515,0-7.077-6.71-2.574-11.213,1.562-1.471,2.757-3.309,2.757-4.044,0-2.3,4.32-5.882,7.169-5.882,3.585,0,5.331,1.562,7.445,6.618,1.746,4.044,2.114,4.412,5.055,4.412,2.482,0,3.585.643,5.239,2.849,1.471,2.114,2.482,2.665,4.044,2.3,1.287-.368,3.033.276,4.963,1.654l2.849,2.114-2.757.551c-1.471.368-4.6,2.3-6.8,4.32-4.6,4.228-9.559,5.147-10.386,1.838-.551-2.022-2.114-2.482-2.114-.643,0,1.93,3.125,4.32,5.423,4.32,2.665,0,5.331-1.379,9.375-5.055,2.665-2.39,4.5-3.125,9.007-3.676,6.342-.735,7.261-1.746,2.206-2.757a16.855,16.855,0,0,1-5.882-2.39,11.1,11.1,0,0,0-5.147-1.746c-2.022,0-3.033-.643-3.768-2.3s-2.022-2.39-4.779-2.849c-3.309-.551-3.952-1.1-5.239-4.228C21.608-80.533,15.634-82.923,10.762-79.063Z" transform="translate(0 -0.247)" fill="#000103"/>
    <path id="Path_1500" data-name="Path 1500" d="M31.489-78.081c-.276.46-.092.919.368.919a1.007,1.007,0,0,0,1.011-.919c0-.551-.184-.919-.368-.919C32.224-79,31.764-78.632,31.489-78.081Z" transform="translate(-2.436 -0.401)" fill="#000103"/>
    <path id="Path_1501" data-name="Path 1501" d="M43-68.118c0,1.1,4.136,4.412,6.618,5.239,2.3.735,3.4-.276,1.1-1.1a26.5,26.5,0,0,1-4.687-2.849C44.379-68.026,43-68.669,43-68.118Z" transform="translate(-3.378 -1.265)" fill="#000103"/>
    <path id="Path_1502" data-name="Path 1502" d="M46.893-51.429C43.585-49.683,40-46.558,40-45.363c0,.46,1.195-.184,2.665-1.379a21.286,21.286,0,0,1,5.7-3.4c6.8-2.574,7.077-2.757,4.044-2.757A14.124,14.124,0,0,0,46.893-51.429Z" transform="translate(-3.135 -2.513)" fill="#000103"/>
    <path id="Path_1503" data-name="Path 1503" d="M23-37.081a.988.988,0,0,0,.919.919.921.921,0,0,0,.919-.919A.868.868,0,0,0,23.919-38,.921.921,0,0,0,23-37.081Z" transform="translate(-1.76 -3.718)" fill="#000103"/>
  </g>
</svg>
