<svg xmlns="http://www.w3.org/2000/svg" width="31.041" height="36.65" viewBox="0 0 31.041 36.65">
  <g id="icons8-oil-industry-50" transform="translate(-4.07 49.676)" opacity="0.33">
    <path id="Path_1504" data-name="Path 1504" d="M12.047-48.95C2.754-46.274,1.342-40.624,9.073-37.056c4.981,2.3,16.132,2.3,21.113,0,6.542-2.974,6.542-7.88.149-10.779C25.948-49.694,16.879-50.289,12.047-48.95Zm3.2,6.1c0,.372-.52.892-1.189.966-1.71.372-3.494-.446-2.974-1.412C11.675-44.267,15.243-43.9,15.243-42.854Z" transform="translate(0)"/>
    <path id="Path_1505" data-name="Path 1505" d="M4.642-30.255a12.759,12.759,0,0,0,0,4.237c.223.52,2.156,1.71,4.386,2.6,2.23.966,4.014,2.007,4.014,2.379,0,.669-1.784.223-5.65-1.338l-2.3-.966-.446,4.163c-.52,5.129.223,6.542,4.535,8.549,4.981,2.3,16.132,2.3,21.113,0,4.312-2.007,5.055-3.42,4.535-8.549l-.446-4.163-2.3.966c-3.866,1.561-5.65,2.007-5.65,1.338,0-.372,1.784-1.412,4.014-2.379,2.23-.892,4.163-2.082,4.386-2.6a12.759,12.759,0,0,0,0-4.237L34.453-33.6l-3.866,1.933c-3.271,1.561-4.758,1.859-10.854,1.859s-7.583-.3-10.854-1.859L5.014-33.6ZM22.41-24.307c2.3,3.568,2.082,5.947-.595,7.508-1.859.966-2.3.966-4.089,0a4.731,4.731,0,0,1-2.3-2.9c-.3-1.71,3.048-7.508,4.312-7.508C20.105-27.207,21.295-25.869,22.41-24.307Z" transform="translate(-0.104 -4.125)"/>
    <path id="Path_1506" data-name="Path 1506" d="M22.467-18.852a7.034,7.034,0,0,0-.372,2.453c0,.669.372.3.743-.892C23.507-19.669,23.284-20.859,22.467-18.852Z" transform="translate(-4.621 -7.648)"/>
  </g>
</svg>
