<?xml version="1.0" standalone="no"?>
<!DOCTYPE svg PUBLIC "-//W3C//DTD SVG 20010904//EN"
 "http://www.w3.org/TR/2001/REC-SVG-20010904/DTD/svg10.dtd">
<svg version="1.0" xmlns="http://www.w3.org/2000/svg"
 width="1255.000000pt" height="1024.000000pt" viewBox="0 0 1255.000000 1024.000000"
 preserveAspectRatio="xMidYMid meet">

<g transform="translate(0.000000,1024.000000) scale(0.100000,-0.100000)"
fill="#000000" stroke="none">
<path d="M5820 9953 c-28 -26 -43 -77 -269 -918 -131 -489 -386 -1442 -567
-2117 l-329 -1228 -272 0 -273 0 0 1183 c0 1129 -1 1184 -19 1222 -10 22 -31
52 -47 67 -65 61 -12 58 -1072 58 l-968 0 -51 -25 c-33 -17 -61 -41 -79 -68
l-29 -42 -3 -1195 -2 -1195 -40 -17 c-23 -9 -48 -30 -60 -50 -19 -31 -20 -49
-20 -308 0 -255 1 -277 20 -307 39 -65 12 -63 730 -63 l650 0 0 -1901 0 -1902
173 6 c189 6 342 29 502 75 l100 29 3 1846 2 1847 1050 0 1050 0 0 -1981 0
-1981 -97 7 c-280 19 -452 55 -586 122 -97 49 -166 135 -167 209 -1 125 133
265 323 337 76 29 92 31 213 31 l132 1 -66 48 c-82 60 -228 132 -307 152 -76
19 -185 19 -260 0 -118 -31 -232 -107 -483 -322 -321 -276 -519 -399 -783
-487 -254 -85 -535 -113 -875 -86 -360 28 -590 117 -661 255 -44 83 -4 207 95
295 115 103 269 155 435 148 l98 -5 -48 34 c-296 212 -562 239 -823 84 -99
-59 -183 -125 -385 -301 -272 -237 -384 -318 -546 -397 -163 -80 -282 -109
-494 -123 -150 -10 -193 -19 -268 -56 -164 -84 -232 -263 -159 -419 45 -94
120 -152 247 -192 58 -17 251 -18 5735 -18 5419 0 5678 1 5740 18 119 33 204
99 250 193 32 66 33 178 3 246 -41 91 -137 173 -241 205 -28 8 -146 20 -292
29 -428 25 -558 41 -670 86 -155 61 -233 154 -233 273 -1 211 251 382 508 346
38 -6 71 -8 73 -6 8 7 -146 108 -223 146 -194 94 -366 93 -530 -6 -79 -48
-141 -96 -298 -233 -394 -343 -611 -469 -945 -551 -191 -47 -284 -56 -552 -55
-426 1 -693 57 -840 176 -157 125 -83 335 160 457 109 54 207 75 328 69 l96
-5 -29 24 c-60 48 -192 124 -270 155 -103 40 -231 49 -321 24 -120 -35 -220
-102 -433 -288 -279 -246 -402 -334 -606 -433 -146 -71 -270 -113 -425 -144
-108 -21 -277 -41 -285 -32 -3 2 -5 892 -5 1978 l0 1973 688 -2 687 -3 5
-1574 5 -1573 70 58 c251 210 423 256 673 179 l22 -7 0 1461 0 1461 658 0
c641 0 658 1 690 20 58 35 62 60 62 350 0 362 0 362 -209 370 l-124 5 1081
1123 c595 617 1092 1141 1106 1165 34 58 41 92 26 128 -23 54 -46 59 -293 59
-254 0 -295 -8 -419 -77 -52 -30 -2615 -2089 -2925 -2350 l-62 -53 -193 0
-193 0 -568 2118 c-541 2019 -569 2118 -597 2145 l-30 27 -270 0 -270 0 -30
-27z m180 -255 l0 -132 57 -58 c32 -32 61 -58 65 -58 4 0 8 86 8 190 l0 190
25 0 25 0 0 -162 0 -161 25 23 c24 23 25 27 25 162 l0 138 44 0 44 0 23 -95
23 -96 -122 -122 -122 -122 -122 122 -122 122 23 96 23 95 39 0 39 0 0 -132z
m-45 -258 l100 -100 -175 -175 c-96 -96 -175 -173 -177 -172 -4 5 142 547 147
547 3 0 50 -45 105 -100z m513 -177 c39 -147 70 -268 69 -270 -2 -1 -81 77
-177 173 l-175 175 98 95 c53 52 101 94 105 94 5 0 40 -120 80 -267z m-119
-215 c124 -123 232 -233 239 -245 11 -21 -2 -37 -227 -265 l-240 -243 -241
241 c-220 220 -241 244 -231 263 11 19 461 470 470 471 3 0 106 -100 230 -222z
m-512 -590 c117 -117 213 -217 213 -223 0 -6 -171 -181 -380 -390 -319 -319
-378 -374 -370 -345 5 19 77 288 159 597 83 309 151 564 151 567 0 18 34 -13
227 -206z m918 -265 c70 -263 143 -534 161 -603 l33 -124 -379 379 c-209 209
-380 384 -380 390 0 10 420 435 431 435 3 0 63 -215 134 -477z m-192 -469
c240 -243 437 -447 437 -455 0 -8 -199 -213 -442 -456 l-443 -443 -437 437
c-263 263 -438 445 -438 456 0 19 867 910 880 905 3 -2 203 -201 443 -444z
m-2623 326 c20 -20 20 -33 20 -1215 0 -1182 0 -1195 -20 -1215 -20 -20 -33
-20 -965 -20 -932 0 -945 0 -965 20 -20 20 -20 33 -20 1215 0 1182 0 1195 20
1215 20 20 33 20 965 20 932 0 945 0 965 -20z m7335 -89 c-33 -32 -599 -577
-1258 -1210 l-1199 -1151 -196 0 c-117 0 -192 4 -186 9 5 5 648 549 1428 1210
1075 909 1426 1201 1445 1201 24 0 21 -5 -34 -59z m114 -38 c-53 -54 -564
-585 -1137 -1179 -572 -595 -1057 -1095 -1078 -1110 -35 -27 -44 -29 -148 -32
l-111 -3 65 65 c36 36 601 581 1255 1210 1027 988 1194 1145 1220 1145 28 1
25 -4 -66 -96z m-320 0 c-57 -49 -697 -591 -1424 -1205 l-1320 -1118 -110 0
c-108 0 -109 0 -90 19 11 11 661 537 1445 1171 1414 1142 1515 1220 1582 1220
13 0 -14 -29 -83 -87z m-5434 -1193 l420 -420 -355 -355 -355 -355 -279 0
c-218 0 -277 3 -274 13 3 6 97 355 209 774 112 420 206 763 209 763 3 0 194
-189 425 -420z m1604 -343 c112 -419 206 -768 208 -774 4 -10 -56 -13 -279
-13 l-283 0 -352 352 -353 353 422 422 c233 233 425 423 428 423 3 0 97 -343
209 -763z m-794 -467 l320 -320 -268 0 -267 0 0 243 0 244 -25 23 -25 23 0
-266 0 -267 -25 0 -25 0 0 295 c0 162 -3 295 -7 295 -4 0 -33 -26 -65 -57
l-58 -57 0 -238 0 -238 -262 0 -263 0 320 320 c176 176 322 320 325 320 3 0
149 -144 325 -320z m-265 -2950 l0 -1980 -25 0 -25 0 0 1980 0 1980 25 0 25 0
0 -1980z"/>
<path d="M6058 9166 l-58 -53 0 -324 0 -323 57 -58 c32 -32 61 -58 65 -58 4 0
8 196 8 435 0 239 -3 435 -7 435 -5 0 -34 -24 -65 -54z"/>
<path d="M6180 8790 l0 -383 25 23 25 23 0 337 0 337 -25 23 -25 23 0 -383z"/>
<path d="M6057 8062 l-57 -58 0 -735 0 -735 58 -57 c32 -32 61 -54 65 -51 10
10 9 1682 -1 1688 -5 3 -34 -21 -65 -52z"/>
<path d="M6180 7270 l0 -793 25 23 25 23 0 747 0 747 -25 23 -25 23 0 -793z"/>
<path d="M2312 7698 l3 -283 214 -3 c149 -2 218 1 227 9 11 9 14 63 14 270 0
221 -2 260 -16 273 -13 14 -48 16 -230 16 l-214 0 2 -282z m388 -8 l0 -220
-165 0 -165 0 0 220 0 220 165 0 165 0 0 -220z"/>
<path d="M3122 7698 l3 -283 225 0 225 0 3 270 c2 245 1 271 -15 283 -12 9
-75 12 -230 12 l-213 0 2 -282z m398 -8 l0 -220 -167 2 -168 3 -3 218 -2 217
170 0 170 0 0 -220z"/>
<path d="M2312 6883 l3 -278 219 -3 c169 -2 221 1 228 10 9 15 11 508 2 532
-5 14 -35 16 -230 16 l-224 0 2 -277z m388 -3 l0 -220 -165 0 -165 0 0 220 0
220 165 0 165 0 0 -220z"/>
<path d="M3122 6883 l3 -278 225 0 225 0 0 275 0 275 -228 3 -227 2 2 -277z
m398 -3 l0 -220 -170 0 -170 0 0 220 0 220 170 0 170 0 0 -220z"/>
<path d="M2312 6078 l3 -283 214 -3 c149 -2 218 1 227 9 11 9 14 63 14 270 0
221 -2 260 -16 273 -13 14 -48 16 -230 16 l-214 0 2 -282z m388 -8 l0 -220
-165 0 -165 0 0 220 0 220 165 0 165 0 0 -220z"/>
<path d="M3122 6078 l3 -283 225 0 225 0 3 270 c2 245 1 271 -15 283 -12 9
-75 12 -230 12 l-213 0 2 -282z m398 -8 l0 -220 -167 2 -168 3 -3 218 -2 217
170 0 170 0 0 -220z"/>
</g>
</svg>
