<?xml version="1.0" encoding="utf-8"?>
<!-- Svg Vector Icons : http://www.onlinewebfonts.com/icon -->
<!DOCTYPE svg PUBLIC "-//W3C//DTD SVG 1.1//EN" "http://www.w3.org/Graphics/SVG/1.1/DTD/svg11.dtd">
<svg version="1.1" xmlns="http://www.w3.org/2000/svg" xmlns:xlink="http://www.w3.org/1999/xlink" x="0px" y="0px" viewBox="0 0 1000 1000" enable-background="new 0 0 1000 1000" xml:space="preserve">
<metadata> Svg Vector Icons : http://www.onlinewebfonts.com/icon </metadata>
<g><path d="M832.7,858.4c-53,0-81,22.3-103.5,40.3c-19,15.1-32.7,26-62.8,26c-30.2,0-43.9-10.9-62.8-26C581,880.7,553,858.4,500,858.4c-53,0-81,22.3-103.5,40.3c-19,15.1-32.7,26-62.8,26c-30.2,0-43.9-10.9-62.8-26c-22.5-17.9-50.5-40.3-103.5-40.3c-18,0-32.6,14.6-32.6,32.7c0,18,14.6,32.6,32.6,32.6c30.2,0,43.9,10.9,62.8,26c22.5,18,50.5,40.3,103.5,40.3c53,0,81-22.3,103.5-40.3c19-15.1,32.7-26,62.8-26c30.2,0,43.9,10.9,62.8,26c22.5,18,50.5,40.3,103.5,40.3c53,0,81-22.3,103.5-40.3c19-15.1,32.7-26,62.8-26c18,0,32.7-14.6,32.7-32.6C865.4,873,850.7,858.4,832.7,858.4z"/><path d="M287.2,861.7c2.8,2.2,5.5,4.3,8,6.3c17.3,13.8,21.9,17.5,38.4,17.5c16.4,0,21.1-3.7,38.4-17.5c24.4-19.5,61.2-48.8,128-48.8c66.7,0,103.6,29.4,128,48.9c17.3,13.8,21.9,17.5,38.4,17.5s21.1-3.7,38.4-17.5c2.5-2,5.2-4.2,8-6.4c9.3-159.1,127.2-265,127.2-265c62.2-66.3,4.1-103.6,4.1-103.6C653.4,374.9,500,381.1,500,381.1S346.6,374.9,155.9,493c0,0-58,37.3,4.1,103.6C160,596.7,277.9,702.6,287.2,861.7z M567.8,563.3c9.6-28.7,31.6-47.3,49.1-41.5c17.5,5.9,23.9,33.9,14.3,62.6c-9.6,28.7-31.6,47.3-49.1,41.5C564.6,620.1,558.2,592,567.8,563.3z M383.1,521.8c17.5-5.8,39.5,12.7,49.1,41.5c9.6,28.7,3.2,56.8-14.3,62.6c-17.5,5.9-39.5-12.7-49.1-41.5C359.2,555.7,365.6,527.7,383.1,521.8z"/><path d="M521.7,255.3v87.1c45,2.5,153.1,15.9,284.2,83.9V255.3c0-12.4-10-22.4-22.4-22.4H544.1C531.7,232.9,521.7,242.9,521.7,255.3z"/><path d="M478.3,255.3c0-12.4-10-22.4-22.4-22.4H216.5c-12.4,0-22.4,10-22.4,22.4v170.9c131.1-68,239.2-81.4,284.2-83.9V255.3z"/><path d="M569.9,107.4h-0.1V65.8c0-30.8-25-55.8-55.8-55.8h-27.9c-30.8,0-55.8,25-55.8,55.8v41.6h-0.1c-48.2,0-87.4,38.4-88.7,86.3h317.1C657.2,145.8,618.1,107.4,569.9,107.4z"/></g>
</svg>